<svg xmlns="http://www.w3.org/2000/svg" width="169.722" height="37.457" viewBox="0 0 169.722 37.457">
  <g id="Group_1" data-name="Group 1" transform="translate(-935 -762)">
    <g id="Group_5" data-name="Group 5" transform="translate(795 737.457)">
      <text id="Seamless_Hauls" data-name="Seamless Hauls" transform="translate(140 57)" fill="#f5f5f5" font-size="20" font-family="SegoeUI-Bold, Segoe UI" font-weight="700"><tspan x="0" y="0">Seamless Hauls</tspan></text>
      <g id="Group_4" data-name="Group 4">
        <rect id="Rectangle_4" data-name="Rectangle 4" width="4.152" height="20.759" rx="2.076" transform="translate(305.41 33.711) rotate(56.993)" fill="#1fe4b5"/>
        <path id="Path_7" data-name="Path 7" d="M2.076,0A2.076,2.076,0,0,1,4.152,2.076V18.683a2.076,2.076,0,1,1-4.152,0V2.076A2.076,2.076,0,0,1,2.076,0Z" transform="translate(305.41 33.711) rotate(56.993)" fill="#1fe4b5"/>
        <rect id="Rectangle_1" data-name="Rectangle 1" width="4.152" height="20.759" rx="2.076" transform="translate(307.459 24.543) rotate(56.993)" fill="#0a96f3"/>
        <path id="Path_8" data-name="Path 8" d="M2.076,0A2.076,2.076,0,0,1,4.152,2.076V18.683a2.076,2.076,0,1,1-4.152,0V2.076A2.076,2.076,0,0,1,2.076,0Z" transform="translate(307.459 24.543) rotate(56.993)" fill="#0a96f3"/>
        <path id="Path_6" data-name="Path 6" d="M2.076,0A2.076,2.076,0,0,1,4.152,2.076V18.683a2.076,2.076,0,1,1-4.152,0V2.076A2.076,2.076,0,0,1,2.076,0Z" transform="translate(307.459 24.543) rotate(56.993)" fill="#0a96f3"/>
      </g>
    </g>
  </g>
</svg>
